<?xml version="1.0" encoding="UTF-8"?>
<svg id="Layer_1" xmlns="http://www.w3.org/2000/svg" version="1.1" viewBox="0 0 2115.772 823.928">
  <!-- Generator: Adobe Illustrator 29.4.0, SVG Export Plug-In . SVG Version: 2.1.0 Build 152)  -->
  <defs>
    <style>
      .st0 {
        fill: none;
      }

      .st1 {
        fill: #6b6b6b;
      }
    </style>
  </defs>
  <g>
    <path class="st1" d="M167.534,191.389l6-8.3c13.3-18.3,39.2-46.7,55.3-60.5l5.3-4.5,18.7,4.6c30.3,7.4,69.9,14.7,97.2,17.8,5.8.6,10.8,1.5,11.2,1.8.5.4-.5,5-2.2,10.2-4.3,13.7-10,34.9-10,37.1,0,1.6,1.1,1.8,12.4,1.8h12.3l2.7-10.1c3.4-12.7,10.6-35.2,11.4-36,.4-.4,7.7-.1,16.2.6,33.2,2.8,82.9,3.9,118.2,2.7,18.4-.7,39.7-1.7,47.2-2.3,7.6-.6,14.2-.7,14.6-.2.8.9,5.7,15.8,8.9,26.8,1,3.8,2.7,9.6,3.5,12.7l1.7,5.8h12.4c9.4,0,12.5-.3,12.5-1.3,0-1.6-6-23.2-9.9-36.1-1.7-5.4-3.1-10.2-3.1-10.6,0-.3,6.2-1.4,13.8-2.4,33.6-4.1,67.3-10.2,97.9-17.7l17.1-4.3,7,6.2c16.3,14.5,41.1,42.1,53.8,59.7l4.6,6.5h14.4c9.9,0,14.4-.3,14.4-1.1,0-.6-2.6-4.8-5.7-9.3-56.8-81.4-135.8-138.7-228-165.1-30-8.6-63.6-14.1-91.8-15.1-8.2-.2-16.6-.6-18.5-.7-7.6-.5-40.2,1.2-52.5,2.8-48.7,6.3-90.1,18.6-132.5,39.6-55.6,27.5-102.6,65.3-141,113.4-9,11.4-25,33.6-25,34.9,0,.3,6.6.6,14.8.6h14.7ZM562.134,30.989c46.9,9.9,94.1,29.9,136.7,58,7.8,5.1,14.2,9.7,14.2,10.2,0,2.5-74.5,15.6-106,18.7l-6.5.6-3.5-8.7c-4.6-11.7-15.3-32.7-22.4-44.2-5.8-9.3-17.2-25-24.1-33-4.4-5-4.5-5,11.6-1.6ZM471.934,25.689c13.6-4.6,27.7-2.3,41.6,6.7,13.2,8.7,26.1,23.3,39.1,44.3,6.4,10.2,21.4,40.3,21.4,42.8,0,1.9-4,2.2-46.5,4-35.4,1.5-100.4.1-125.2-2.6-4.3-.5-5.1-.9-4.6-2.3.3-.9,4.3-9.4,8.9-18.7,20.2-41.3,42.2-66.3,65.3-74.2ZM272.834,88.989c45.8-30,89.6-48.1,143.2-59.4,2.5-.6,5.6-1,7-1.1,2.3-.1,2.3,0-1.1,3.6-15.4,16.2-34.4,47.3-46.6,75.8l-4.2,10-3.8-.3c-17.6-1.4-68.1-9.7-92.3-15.2-7.4-1.6-13.8-3-14.2-3-2.8,0,.8-3.1,12-10.4Z"/>
    <path class="st1" d="M804.334,633.389l-8.7,11.4c-4.7,6.3-13.5,17-19.5,23.9-10.4,11.7-32,33.2-36.8,36.4-2,1.3-3.7,1.1-18-2.6-27.6-7-64-13.9-93.3-17.6-6.9-.8-13.9-1.8-15.7-2.1l-3.2-.5,2.5-7.2c2.7-7.8,11.4-39,11.4-40.7,0-.7-4.2-1-12.6-.8l-12.6.3-3.3,12c-1.8,6.6-4.8,16.7-6.7,22.5l-3.4,10.5h-6.5c-3.5,0-16.5-.7-28.9-1.5-39.5-2.6-123.7-1.7-156,1.6l-5.6.6-4.2-13.3c-2.2-7.4-5.3-17.8-6.8-23.2l-2.7-9.7h-12.3c-11.2,0-12.4.2-12.4,1.8,0,2.2,5.9,23.6,10,36.5,1.7,5.5,3,10,2.8,10.1-.2.1-8.4,1.2-18.3,2.4-32,3.9-63,9.6-94.3,17.3l-16.3,4-5.7-4.9c-15.7-13.6-43.5-44.5-56.2-62.5l-3.3-4.7h-14.9c-11.7,0-14.8.3-14.2,1.2,12.6,21.5,41.4,56.1,64.4,77.5,66.9,62.2,144,98.2,235.5,110,17.6,2.2,71.4,2.5,90,.5,112.7-12.5,214.6-69.3,283.6-158.2,7.7-9.9,20.9-28.9,20.9-30.2,0-.4-6.5-.8-14.4-.8h-14.3ZM424.134,796.389c-.6,0-7.4-1.3-15.1-3-37.2-7.8-74.4-21.9-108.6-41-13.2-7.3-39.5-24.2-41.3-26.4-.8-1,2.8-2.1,16.2-5,21.1-4.5,39.9-7.7,63.9-11,10.1-1.4,19.7-2.7,21.3-2.9,1.7-.3,4.7-.4,6.8-.3l3.8.1,4.8,11c12.4,28.5,27.7,53.7,43.9,72.2,3,3.5,4.9,6.3,4.3,6.3ZM508.534,795.089c-10.2,5.2-16.8,6.7-25.9,6-9.3-.8-15-2.8-24.4-8.9-14.4-9.4-28.4-25.8-42.6-50.2-6.6-11.4-19.2-37.3-18.4-38.1.3-.3,18.8-1.4,45.8-2.9,13.2-.7,93.1.3,109.5,1.4,19.4,1.3,21.5,1.6,21.5,3.2,0,3-18.6,38.5-26.1,49.8-11.3,17.1-27.9,33.8-39.4,39.7ZM704.434,731.989c-29.8,20.5-71,40.9-103.7,51.3-18.2,5.8-52.2,14-53.3,12.9-.2-.3,2.1-3.3,5.2-6.9,7.4-8.5,15.9-20.3,22.9-31.9,6.5-10.7,18.9-35.3,22.6-44.7q2.4-6.2,5.9-5.8c1.9.3,10.7,1.4,19.5,2.5,25.5,3.3,57.6,9.1,84.4,15.3l5.3,1.2-8.8,6.1Z"/>
    <polygon class="st1" points="231.795 317.809 231.795 229 0 229 0 317.809 53.179 317.809 53.179 507.778 0 507.778 0 596.588 231.795 596.588 231.795 507.778 178.616 507.778 178.616 317.809 231.795 317.809"/>
    <path class="st1" d="M487.594,370.045c-14.327-4.168-88.045-25.267-100.809-29.435s-23.183-10.159-23.183-17.713,11.722-15.629,35.426-15.629c74.76,0,110.674,46.106,110.674,46.106,0,0,4.047,5.391,5.404,7.325h72.128v-125.791h-77.432v22.885c-5.914-4.084-49.576-32.58-117.286-32.58-89.347,0-139.101,46.367-139.101,115.657s62.778,97.944,80.23,105.237c17.453,7.294,85.701,26.57,114.875,35.687,29.175,9.117,39.855,15.629,39.855,20.318s-12.764,16.932-49.232,16.932c-63.524,0-96.237-37.46-101.978-44.714v-.056c-1.826-2.447-3.968-5.341-4.695-6.431-.842-1.261-2.795-4.059-4.149-5.993h-72.128v134.331h80.972v-28.051c9.421,6.27,57.649,36.356,115.523,36.356,64.601,0,146.915-28.133,146.915-115.917s-97.683-114.354-112.01-118.522Z"/>
    <path class="st1" d="M805.202,223.977c-107.692,0-196.016,53.844-196.016,191.292s95.883,188.931,196.487,188.931,195.543-51.012,195.543-187.512-94.934-192.711-196.014-192.711ZM806.148,512.569c-36.843,0-60.46-8.502-60.46-97.771s17.478-98.717,61.875-98.717c26.922,0,59.514,1.888,59.514,95.883s-24.086,100.605-60.929,100.605Z"/>
  </g>
  <g>
    <path class="st1" d="M1271.544,262.045v40.714h-29.942v56.963h-50.938v-56.963h-104.798v-45.461l97.312-160.667h58.424v165.414h29.942ZM1124.388,262.045h66.274v-114.292l-66.274,114.292Z"/>
    <path class="st1" d="M1383.645,228.269c-6.331,0-11.808.793-16.433,2.373-8.155,2.921-14.303,8.339-18.439,16.25l-46.739-2.191,18.622-146.243h145.878v44.184h-108.267l-9.494,57.876c8.033-5.232,14.301-8.701,18.805-10.407,7.546-2.799,16.734-4.2,27.569-4.2,21.909,0,41.017,7.366,57.329,22.092,16.309,14.729,24.465,36.15,24.465,64.267,0,24.465-7.851,46.314-23.553,65.544-15.701,19.233-39.193,28.847-70.474,28.847-25.195,0-45.89-6.755-62.076-20.266-16.188-13.51-25.195-32.681-27.021-57.511h51.852c2.067,11.32,6.024,20.055,11.867,26.2,5.842,6.147,14.36,9.22,25.561,9.22,12.899,0,22.73-4.533,29.485-13.602,6.756-9.066,10.133-20.477,10.133-34.233,0-13.511-3.166-24.921-9.493-34.233-6.33-9.312-16.189-13.967-29.577-13.967Z"/>
    <path class="st1" d="M1594.885,366.296c-33.717,0-57.36-11.805-70.931-35.419-13.573-23.612-20.357-57.266-20.357-100.964s6.784-77.412,20.357-101.147c13.57-23.735,37.214-35.602,70.931-35.602s57.389,11.867,71.021,35.602c13.511,23.735,20.266,57.452,20.266,101.147s-6.786,77.352-20.356,100.964c-13.573,23.615-37.217,35.419-70.931,35.419ZM1625.376,299.656c4.747-16.066,7.12-39.313,7.12-69.744,0-31.888-2.405-55.503-7.212-70.839-4.81-15.336-14.942-23.004-30.398-23.004s-25.684,7.668-30.673,23.004c-4.992,15.336-7.485,38.951-7.485,70.839,0,30.43,2.493,53.708,7.485,69.835,4.989,16.129,15.214,24.191,30.673,24.191s25.62-8.093,30.49-24.283Z"/>
    <path class="st1" d="M1802.838,366.296c-33.717,0-57.36-11.805-70.931-35.419-13.573-23.612-20.357-57.266-20.357-100.964s6.784-77.412,20.357-101.147c13.57-23.735,37.214-35.602,70.931-35.602s57.389,11.867,71.021,35.602c13.511,23.735,20.266,57.452,20.266,101.147s-6.786,77.352-20.356,100.964c-13.573,23.615-37.217,35.419-70.931,35.419ZM1833.329,299.656c4.747-16.066,7.12-39.313,7.12-69.744,0-31.888-2.405-55.503-7.212-70.839-4.81-15.336-14.942-23.004-30.398-23.004s-25.684,7.668-30.673,23.004c-4.992,15.336-7.485,38.951-7.485,70.839,0,30.43,2.493,53.708,7.485,69.835,4.989,16.129,15.214,24.191,30.673,24.191s25.62-8.093,30.49-24.283Z"/>
    <path class="st1" d="M2049.315,359.723h-53.312v-182.575h-62.258v-35.42c16.432-.73,27.934-1.826,34.507-3.286,10.467-2.311,18.987-6.938,25.561-13.876,4.502-4.747,7.91-11.074,10.224-18.988,1.338-4.747,2.009-8.276,2.009-10.589h43.271v264.734Z"/>
    <path class="st1" d="M1118.363,592.973v-54.407h55.32v54.407h-55.32ZM1173.683,675.315v54.407h-55.32v-54.407h55.32Z"/>
    <path class="st1" d="M1330.516,518.847c-6.208-7.423-15.095-11.137-26.656-11.137-15.824,0-26.597,5.905-32.316,17.71-3.286,6.818-5.234,17.649-5.842,32.498h-50.573c.85-22.517,4.929-40.714,12.232-54.59,13.875-26.41,38.523-39.619,73.942-39.619,27.994,0,50.269,7.76,66.823,23.278,16.552,15.52,24.83,36.059,24.83,61.619,0,19.599-5.843,37.003-17.527,52.217-7.668,10.104-20.266,21.361-37.793,33.776l-20.813,14.789c-13.025,9.251-21.94,15.946-26.747,20.083-4.811,4.14-8.855,8.946-12.142,14.424h115.57v45.826h-181.298c.485-18.988,4.564-36.332,12.232-52.034,7.423-17.646,24.95-36.332,52.582-56.051,23.978-17.162,39.496-29.454,46.557-36.88,10.832-11.562,16.249-24.22,16.249-37.976,0-11.197-3.104-20.509-9.311-27.935Z"/>
    <path class="st1" d="M1511.448,736.294c-33.717,0-57.36-11.804-70.931-35.419-13.573-23.612-20.357-57.267-20.357-100.965s6.784-77.411,20.357-101.146c13.57-23.734,37.214-35.603,70.931-35.603s57.389,11.868,71.021,35.603c13.511,23.735,20.266,57.451,20.266,101.146s-6.786,77.353-20.356,100.965c-13.573,23.615-37.217,35.419-70.931,35.419ZM1541.938,669.655c4.747-16.066,7.12-39.313,7.12-69.744,0-31.888-2.405-55.503-7.212-70.839-4.81-15.336-14.942-23.005-30.398-23.005s-25.684,7.669-30.673,23.005c-4.992,15.336-7.485,38.951-7.485,70.839,0,30.431,2.493,53.709,7.485,69.836,4.989,16.129,15.214,24.19,30.673,24.19s25.62-8.093,30.49-24.282Z"/>
    <path class="st1" d="M1757.924,729.722h-53.312v-182.575h-62.258v-35.42c16.432-.73,27.934-1.825,34.507-3.286,10.467-2.311,18.987-6.938,25.561-13.876,4.502-4.747,7.91-11.074,10.224-18.987,1.338-4.747,2.009-8.276,2.009-10.59h43.271v264.734Z"/>
    <path class="st1" d="M1857.063,713.108c-15.216-15.579-22.821-34.507-22.821-56.781,0-14.849,3.377-28.299,10.133-40.349,6.755-12.051,16.643-21.116,29.668-27.204-12.78-8.519-21.087-17.738-24.921-27.66-3.834-9.919-5.751-19.199-5.751-27.843,0-19.23,7.24-35.631,21.726-49.204,14.483-13.57,34.933-20.357,61.346-20.357s46.859,6.787,61.346,20.357c14.483,13.573,21.727,29.974,21.727,49.204,0,8.644-1.917,17.924-5.752,27.843-3.834,9.922-12.141,18.531-24.921,25.834,13.022,7.304,22.821,16.979,29.395,29.03,6.572,12.05,9.859,25.5,9.859,40.349,0,22.274-8.248,41.233-24.739,56.872-16.495,15.642-39.527,23.461-69.104,23.461s-51.975-7.851-67.188-23.552ZM1888.284,652.858c0,13.025,3.378,23.127,10.133,30.308,6.756,7.184,16.096,10.771,28.025,10.771s21.271-3.588,28.025-10.771c6.755-7.181,10.133-17.282,10.133-30.308,0-13.511-3.44-23.764-10.315-30.764-6.878-6.998-16.158-10.498-27.843-10.498s-20.968,3.5-27.843,10.498c-6.878,7-10.315,17.253-10.315,30.764ZM1901.977,562.665c5.842,6.088,13.995,9.129,24.465,9.129,10.59,0,18.774-3.041,24.557-9.129,5.779-6.085,8.672-13.936,8.672-23.552,0-10.467-2.893-18.651-8.672-24.557-5.782-5.902-13.967-8.854-24.557-8.854-10.47,0-18.654,2.952-24.557,8.854s-8.854,14.09-8.854,24.557c0,9.616,2.981,17.467,8.946,23.552Z"/>
  </g>
  <rect class="st0" width="2115.772" height="823.923"/>
</svg>